<mxfile host="app.diagrams.net" modified="2023-11-28T06:34:24.670Z" agent="Mozilla/5.0 (Macintosh; Intel Mac OS X 10_15_7) AppleWebKit/537.36 (KHTML, like Gecko) Chrome/119.0.0.0 Safari/537.36" etag="xA81MF-tU0L0QD1WvVzp" version="21.7.4" type="device">
  <diagram name="Page-1" id="A7L3BxDi70csSSCWcALy">
    <mxGraphModel dx="2868" dy="1584" grid="1" gridSize="10" guides="1" tooltips="1" connect="1" arrows="1" fold="1" page="1" pageScale="1" pageWidth="827" pageHeight="1169" math="0" shadow="0">
      <root>
        <mxCell id="0" />
        <mxCell id="1" parent="0" />
        <mxCell id="Iyp-yQQt9KiH9gwRxATc-1" value="" style="shape=image;verticalLabelPosition=bottom;labelBackgroundColor=default;verticalAlign=top;aspect=fixed;imageAspect=0;image=https://miro.medium.com/v2/resize:fit:1400/1*l37va2Mu8Snx6LLb13430A.png;clipPath=inset(0% 0% 0% 72.33%);" vertex="1" parent="1">
          <mxGeometry x="100" y="70" width="218.20862745098037" height="402.24" as="geometry" />
        </mxCell>
        <mxCell id="Iyp-yQQt9KiH9gwRxATc-2" value="" style="shape=image;verticalLabelPosition=bottom;labelBackgroundColor=default;verticalAlign=top;aspect=fixed;imageAspect=0;image=https://miro.medium.com/v2/resize:fit:1400/1*l37va2Mu8Snx6LLb13430A.png;clipPath=inset(72.88% 86.67% 7.52% 3.33%);" vertex="1" parent="1">
          <mxGeometry x="176.46" y="585" width="65.29" height="65.29" as="geometry" />
        </mxCell>
      </root>
    </mxGraphModel>
  </diagram>
</mxfile>
